<svg width="15" height="16" viewBox="0 0 15 16" fill="none" xmlns="http://www.w3.org/2000/svg">
<g id="Mask 2">
<path id="Mask" fill-rule="evenodd" clip-rule="evenodd" d="M0.5 2.625V1.75C0.5 1.33438 0.834375 1 1.25 1H4.75L5.04375 0.415625C5.16875 0.159375 5.42812 0 5.7125 0H9.28438C9.56875 0 9.82812 0.159375 9.95625 0.415625L10.25 1H13.75C14.1656 1 14.5 1.33438 14.5 1.75V2.625C14.5 2.83125 14.3313 3 14.125 3H0.875C0.66875 3 0.5 2.83125 0.5 2.625ZM13.5 4.375V14.5C13.5 15.3281 12.8281 16 12 16H3C2.17188 16 1.5 15.3281 1.5 14.5V4.375C1.5 4.16875 1.66875 4 1.875 4H13.125C13.3313 4 13.5 4.16875 13.5 4.375ZM4.5 6C4.775 6 5 6.225 5 6.5V13.5C5 13.775 4.775 14 4.5 14C4.225 14 4 13.775 4 13.5V6.5C4 6.225 4.225 6 4.5 6ZM8 6.5C8 6.225 7.775 6 7.5 6C7.225 6 7 6.225 7 6.5V13.5C7 13.775 7.225 14 7.5 14C7.775 14 8 13.775 8 13.5V6.5ZM10.5 6C10.775 6 11 6.225 11 6.5V13.5C11 13.775 10.775 14 10.5 14C10.225 14 10 13.775 10 13.5V6.5C10 6.225 10.225 6 10.5 6Z" fill="#C3CAD9"/>
<mask id="mask0_6064_315" style="mask-type:luminance" maskUnits="userSpaceOnUse" x="0" y="0" width="15" height="16">
<path id="Mask_2" fill-rule="evenodd" clip-rule="evenodd" d="M0.5 2.625V1.75C0.5 1.33438 0.834375 1 1.25 1H4.75L5.04375 0.415625C5.16875 0.159375 5.42812 0 5.7125 0H9.28438C9.56875 0 9.82812 0.159375 9.95625 0.415625L10.25 1H13.75C14.1656 1 14.5 1.33438 14.5 1.75V2.625C14.5 2.83125 14.3313 3 14.125 3H0.875C0.66875 3 0.5 2.83125 0.5 2.625ZM13.5 4.375V14.5C13.5 15.3281 12.8281 16 12 16H3C2.17188 16 1.5 15.3281 1.5 14.5V4.375C1.5 4.16875 1.66875 4 1.875 4H13.125C13.3313 4 13.5 4.16875 13.5 4.375ZM4.5 6C4.775 6 5 6.225 5 6.5V13.5C5 13.775 4.775 14 4.5 14C4.225 14 4 13.775 4 13.5V6.5C4 6.225 4.225 6 4.5 6ZM8 6.5C8 6.225 7.775 6 7.5 6C7.225 6 7 6.225 7 6.5V13.5C7 13.775 7.225 14 7.5 14C7.775 14 8 13.775 8 13.5V6.5ZM10.5 6C10.775 6 11 6.225 11 6.5V13.5C11 13.775 10.775 14 10.5 14C10.225 14 10 13.775 10 13.5V6.5C10 6.225 10.225 6 10.5 6Z" fill="white"/>
</mask>
<g mask="url(#mask0_6064_315)">
</g>
</g>
</svg>
