<svg width="23" height="20" viewBox="0 0 23 20" fill="none" xmlns="http://www.w3.org/2000/svg">
<path fill-rule="evenodd" clip-rule="evenodd" d="M4.29196 3.64139H21.3535C21.9366 3.64139 22.3641 4.19014 22.2229 4.75489L20.402 12.0381C20.307 12.4181 19.9761 12.6924 19.5852 12.7153L5.26335 13.557C5.5194 14.1554 6.11261 14.5661 6.79335 14.5661H16.8016C18.2997 14.5661 19.5185 15.7849 19.5185 17.2831C19.5185 18.7812 18.2997 20 16.8016 20C14.9243 20 13.6046 18.1275 14.2468 16.3584H9.34203C9.98509 18.1298 8.66248 20 6.78729 20C4.52799 20 3.25894 17.3851 4.64786 15.6114C3.87751 15.0012 3.43032 14.1031 3.35718 13.2755C2.22232 0.631508 2.27181 1.18296 2.37803 2.36648L2.37804 2.36663L2.37812 2.36744C2.44952 3.1631 2.54642 4.24273 2.32647 1.79232H1.32499C0.830056 1.79232 0.428833 1.39109 0.428833 0.896159C0.428833 0.401223 0.830056 0 1.32499 0H3.14577C3.60964 0 3.99687 0.354025 4.03835 0.816059L4.29196 3.64139ZM5.86271 17.2831C5.86271 17.7929 6.27751 18.2077 6.78729 18.2077C7.29712 18.2077 7.71191 17.7929 7.71191 17.2831C7.71191 16.7732 7.29712 16.3584 6.78729 16.3584C6.27751 16.3584 5.86271 16.7732 5.86271 17.2831ZM16.8015 18.2077C16.2917 18.2077 15.8769 17.7929 15.8769 17.2831C15.8769 16.7732 16.2917 16.3584 16.8015 16.3584C17.3114 16.3584 17.7261 16.7732 17.7261 17.2831C17.7261 17.7929 17.3114 18.2077 16.8015 18.2077ZM5.02212 11.7758L18.8228 10.9648L20.2057 5.43367H4.45284L5.02212 11.7758Z" fill="#69707D"/>
</svg>
