<svg width="139" height="20" viewBox="0 0 139 20" fill="none" xmlns="http://www.w3.org/2000/svg">
<path fill-rule="evenodd" clip-rule="evenodd" d="M83.0473 10.9554L89.5761 20H84.3498L79.9925 13.9633L76.9723 16.9386V19.9543H72.7851V0H76.9723V11.2226L83.8077 4.46748H89.6347L83.0473 10.9554ZM52.3533 14.5951C51.9226 17.9292 49.23 20 44.1358 20C38.8197 20 35.7997 17.3232 35.7997 12.1544C35.7997 7.0812 38.8965 4.30913 44.1358 4.30913C46.3306 4.30913 48.0754 4.85922 49.387 5.77393V5.76839C52.3843 7.79242 52.653 11.0789 52.4127 13.2081H52.2582L52.2582 13.2092H39.8864C40.1744 15.2853 41.4147 16.3143 44.1358 16.3143C46.6485 16.3143 47.8927 15.615 48.2794 14.5951H52.3533ZM8.96683 20C13.7282 20 16.4858 19.2467 16.4858 15.3935C16.4858 11.9945 13.1057 11.2222 9.82597 10.7123L9.26536 10.6271L8.98701 10.5855L8.63789 10.5332C5.93668 10.1276 5.45681 9.74502 5.45681 9.06204C5.45681 8.5842 5.94774 7.73096 8.29955 7.73096C10.7547 7.73096 11.793 8.37823 11.793 9.60134V9.73506H16.0745V9.60217C16.0745 7.21298 14.7244 4.36394 8.29955 4.36394C2.34817 4.36394 1.09873 6.94831 1.09873 9.11603C1.09873 12.2131 3.86186 13.2017 8.32249 13.7914C8.53257 13.8188 8.75481 13.8454 8.98065 13.872C10.6497 14.0688 12.1532 14.2911 12.1532 15.4575C12.1532 16.4672 10.538 16.6787 8.85515 16.6787C6.05831 16.6787 5.07121 16.0865 5.07121 14.759V14.6253H0.752101L0.750442 14.9265L0.75 15.2433C0.758454 16.0334 0.867991 17.1559 1.80693 18.105C3.05277 19.3619 5.46152 20 8.96683 20ZM22.1771 20V12.5096C22.1771 10.4061 22.7236 8.08726 26.3533 8.08726C30.1637 8.08726 30.1356 10.7183 30.1216 12.0247L30.1206 12.1287L30.1201 20H34.301V12.2322C34.3001 9.96844 34.1254 4.46555 27.569 4.46555C24.7912 4.46555 23.377 5.37748 22.3744 6.74594H22.1771V4.46748H17.9705V20H22.1771ZM48.2346 10.4261H40.0472C40.5326 8.85164 41.8105 7.99479 44.1358 7.99479C47.1303 7.99479 47.8907 9.26248 48.2346 10.4261ZM71.249 4.45724V20H67.0405V17.8312H66.9089C65.8588 19.1825 64.0891 20 61.1751 20C54.6661 20 53.9331 14.3213 53.9331 12.2286L53.9339 12.0917C53.9625 9.74991 54.7544 4.45724 61.1869 4.45724C64.0554 4.45724 65.8112 5.36281 66.8641 6.73957L67.0405 6.73957V4.45724H71.249ZM62.3955 16.3766C58.3992 16.3766 57.9484 13.3454 57.9484 12.2286C57.9484 11.0194 58.3735 8.08062 62.4027 8.08062C66.0343 8.08062 66.7773 10.1249 66.7773 12.2286C66.7773 14.5796 66.0351 16.3766 62.3955 16.3766ZM99.4756 20C104.57 20 107.262 17.9292 107.693 14.5951H103.619C103.232 15.615 101.988 16.3143 99.4756 16.3143C96.7545 16.3143 95.5142 15.2853 95.2262 13.2092H107.598V13.2081H107.753C107.993 11.0789 107.724 7.79242 104.727 5.76839V5.77393C103.415 4.85922 101.67 4.30913 99.4756 4.30913C94.2363 4.30913 91.1396 7.0812 91.1396 12.1544C91.1396 17.3232 94.1595 20 99.4756 20ZM95.3871 10.4261H103.574C103.231 9.26248 102.47 7.99479 99.4756 7.99479C97.1504 7.99479 95.8725 8.85164 95.3871 10.4261ZM113.51 20V13.0306C113.51 10.9269 114.441 8.48814 117.56 8.48814C118.89 8.48814 119.953 8.72429 120.345 8.8342L121.015 4.85839C120.938 4.84144 120.859 4.82367 120.778 4.80546L120.778 4.80542C120.095 4.65147 119.269 4.46555 118.258 4.46555C115.593 4.46555 114.636 5.2601 113.772 6.74788H113.51V4.46555H109.301V20H113.51ZM138.25 15.3935C138.25 19.2467 135.492 20 130.731 20C127.226 20 124.817 19.3619 123.571 18.105C122.632 17.1559 122.523 16.0334 122.514 15.2433L122.515 14.9265L122.516 14.6253H126.835V14.759C126.835 16.0865 127.823 16.6787 130.619 16.6787C132.302 16.6787 133.917 16.4672 133.917 15.4575C133.917 14.2911 132.414 14.0688 130.745 13.872C130.519 13.8454 130.297 13.8188 130.087 13.7914C125.626 13.2017 122.863 12.2131 122.863 9.11603C122.863 6.94831 124.112 4.36394 130.064 4.36394C136.489 4.36394 137.839 7.21298 137.839 9.60217V9.73506H133.557V9.60134C133.557 8.37823 132.519 7.73096 130.064 7.73096C127.712 7.73096 127.221 8.5842 127.221 9.06204C127.221 9.74502 127.701 10.1276 130.402 10.5332L130.751 10.5855L131.03 10.6271L131.59 10.7123C134.87 11.2222 138.25 11.9945 138.25 15.3935Z" fill="#1D2026"/>
</svg>
