<svg width="13" height="4" viewBox="0 0 13 4" fill="none" xmlns="http://www.w3.org/2000/svg">
<path d="M11.8571 3.66607C12.2134 3.66607 12.5 3.37946 12.5 3.02321V0.97678C12.5 0.62053 12.2134 0.333923 11.8571 0.333923H1.14286C0.786607 0.333923 0.5 0.62053 0.5 0.97678V3.02321C0.5 3.37946 0.786607 3.66607 1.14286 3.66607H11.8571Z" fill="#FF7E1B"/>
<mask id="mask0_6064_699" style="mask-type:luminance" maskUnits="userSpaceOnUse" x="0" y="0" width="13" height="4">
<path d="M11.8571 3.66607C12.2134 3.66607 12.5 3.37946 12.5 3.02321V0.97678C12.5 0.62053 12.2134 0.333923 11.8571 0.333923H1.14286C0.786607 0.333923 0.5 0.62053 0.5 0.97678V3.02321C0.5 3.37946 0.786607 3.66607 1.14286 3.66607H11.8571Z" fill="white"/>
</mask>
<g mask="url(#mask0_6064_699)">
</g>
</svg>
