<svg width="13" height="12" viewBox="0 0 13 12" fill="none" xmlns="http://www.w3.org/2000/svg">
<path d="M12.5 7.02321V4.97679C12.5 4.62054 12.2134 4.33393 11.8571 4.33393H8.16607V0.642857C8.16607 0.286607 7.87946 0 7.52321 0H5.47679C5.12054 0 4.83393 0.286607 4.83393 0.642857V4.33393H1.14286C0.786607 4.33393 0.5 4.62054 0.5 4.97679V7.02321C0.5 7.37946 0.786607 7.66607 1.14286 7.66607H4.83393V11.3571C4.83393 11.7134 5.12054 12 5.47679 12H7.52321C7.87946 12 8.16607 11.7134 8.16607 11.3571V7.66607H11.8571C12.2134 7.66607 12.5 7.37946 12.5 7.02321Z" fill="black"/>
<mask id="mask0_6064_703" style="mask-type:luminance" maskUnits="userSpaceOnUse" x="0" y="0" width="13" height="12">
<path d="M12.5 7.02321V4.97679C12.5 4.62054 12.2134 4.33393 11.8571 4.33393H8.16607V0.642857C8.16607 0.286607 7.87946 0 7.52321 0H5.47679C5.12054 0 4.83393 0.286607 4.83393 0.642857V4.33393H1.14286C0.786607 4.33393 0.5 4.62054 0.5 4.97679V7.02321C0.5 7.37946 0.786607 7.66607 1.14286 7.66607H4.83393V11.3571C4.83393 11.7134 5.12054 12 5.47679 12H7.52321C7.87946 12 8.16607 11.7134 8.16607 11.3571V7.66607H11.8571C12.2134 7.66607 12.5 7.37946 12.5 7.02321Z" fill="white"/>
</mask>
<g mask="url(#mask0_6064_703)">
<rect x="-0.357178" y="-0.857147" width="13.7143" height="13.7143" fill="#FF7E1B"/>
</g>
</svg>
